<svg width="179" height="64" viewBox="0 0 179 64" fill="none" xmlns="http://www.w3.org/2000/svg">
<g clip-path="url(#clip0_134_972)">
<mask id="mask0_134_972" style="mask-type:luminance" maskUnits="userSpaceOnUse" x="16" y="11" width="147" height="40">
<path d="M162.757 11H16.9805V50.8745H162.757V11Z" fill="white"/>
</mask>
<g mask="url(#mask0_134_972)">
<path fill-rule="evenodd" clip-rule="evenodd" d="M157.769 14.1215L152.256 19.9853L152.839 22.2316H154.502C155.96 22.2316 157.107 22.5038 157.944 23.0485C158.78 23.5929 159.198 24.3806 159.198 25.4114C159.198 26.3644 158.863 27.1229 158.192 27.6869C157.52 28.2509 156.679 28.5329 155.669 28.5329C154.52 28.5329 153.524 28.3043 152.678 27.8474C151.832 27.3904 151.039 26.7242 150.3 25.8491L147.792 28.1828C148.668 29.2331 149.742 30.0936 151.016 30.7647C152.29 31.4356 153.82 31.7711 155.61 31.7711C156.66 31.7711 157.628 31.6107 158.513 31.2898C159.398 30.9688 160.151 30.5215 160.773 29.9478C161.396 29.3741 161.883 28.6934 162.232 27.9056C162.583 27.118 162.757 26.2478 162.757 25.2947C162.757 24.3418 162.592 23.5249 162.262 22.8442C161.931 22.1635 161.489 21.5946 160.935 21.1376C160.38 20.6805 159.738 20.3207 159.009 20.0582C158.279 19.7956 157.526 19.6157 156.748 19.5185L162.437 13.6839V11H148.93V14.1215H157.769ZM144.608 24.2153V20.7438H135.972V24.2153H144.608ZM127.56 16.7762V31.4211H131.12V11H127.298L121.084 20.6562L114.865 11H111.044V31.4259H114.603V16.8346L120.992 26.4033H121.108L127.556 16.7762H127.56ZM105.525 11H101.966V22.7567C101.966 24.6432 101.504 26.0629 100.585 27.0159C99.6662 27.9689 98.4069 28.4454 96.8025 28.4454C95.1979 28.4454 93.9094 27.9494 92.9905 26.9575C92.0715 25.9656 91.6096 24.5168 91.6096 22.6108V11H88.0506V22.7567C88.0506 24.2348 88.2547 25.5329 88.6632 26.6513C89.0716 27.7695 89.655 28.708 90.4135 29.4665C91.172 30.2249 92.0861 30.7938 93.1558 31.1731C94.2255 31.5524 95.4215 31.7419 96.7441 31.7419C98.0666 31.7419 99.2967 31.5524 100.376 31.1731C101.456 30.7938 102.374 30.2201 103.133 29.4519C103.891 28.6836 104.48 27.7258 104.898 26.5784C105.316 25.4308 105.525 24.0986 105.525 22.5816V11ZM78.7347 11V31.4259H82.2938V11H78.7347ZM59.8793 31.4259H74.174V28.1878H63.4383V11H59.8793V31.4259ZM39.7402 19.4942V31.4259H54.9976V28.1878H43.2993V22.7324H53.5389V19.4942H39.7402ZM30.3416 22.8199V31.4259H33.9007V11H30.3416V19.4893H20.5396V11H16.9805V31.4259H20.5396V22.8199H30.3416Z" fill="white"/>
<path fill-rule="evenodd" clip-rule="evenodd" d="M158.124 44.6364C158.124 44.3592 158.24 44.1258 158.479 43.9313C158.717 43.7368 159.048 43.6395 159.471 43.6395C159.85 43.6395 160.224 43.7125 160.593 43.8584C160.963 44.0043 161.338 44.2133 161.717 44.4905L162.495 43.3917C162.072 43.0513 161.615 42.7935 161.129 42.6185C160.643 42.4435 160.098 42.3511 159.49 42.3511C159.082 42.3511 158.703 42.4094 158.357 42.5213C158.012 42.638 157.716 42.7985 157.468 43.0124C157.219 43.2263 157.03 43.4792 156.889 43.7758C156.748 44.0724 156.679 44.3981 156.679 44.7627C156.679 45.1468 156.743 45.4774 156.864 45.745C156.986 46.0124 157.166 46.2408 157.399 46.4305C157.632 46.6201 157.919 46.7757 158.265 46.9021C158.61 47.0285 158.999 47.1404 159.446 47.2425C159.831 47.3348 160.146 47.4272 160.39 47.5147C160.628 47.6023 160.817 47.6946 160.958 47.7919C161.095 47.8891 161.192 48.001 161.24 48.1177C161.295 48.2344 161.318 48.3705 161.318 48.5212C161.318 48.8421 161.188 49.0998 160.924 49.2894C160.662 49.4791 160.302 49.5714 159.855 49.5714C159.335 49.5714 158.868 49.4791 158.459 49.2943C158.051 49.1095 157.643 48.8421 157.244 48.4968L156.369 49.5374C156.864 49.9847 157.404 50.3201 157.988 50.5341C158.571 50.753 159.184 50.8599 159.82 50.8599C160.253 50.8599 160.652 50.8064 161.017 50.6946C161.377 50.5827 161.688 50.4223 161.945 50.2084C162.203 49.9944 162.403 49.7367 162.549 49.4304C162.695 49.1241 162.768 48.774 162.768 48.3801C162.768 48.035 162.709 47.7335 162.597 47.4758C162.485 47.2181 162.315 46.9945 162.091 46.8048C161.872 46.6104 161.591 46.4499 161.255 46.3138C160.919 46.1777 160.536 46.0561 160.103 45.9491C159.709 45.8567 159.383 45.7644 159.125 45.6768C158.868 45.5893 158.669 45.497 158.523 45.3948C158.377 45.2927 158.275 45.1808 158.222 45.0643C158.168 44.9475 158.138 44.8017 158.138 44.6364M143.693 42.4727H137.571V50.7432H143.751V49.4304H139.011V47.223H143.158V45.9103H139.011V43.7854H143.689V42.4727H143.693ZM122.878 45.1712C122.878 45.5991 122.723 45.9394 122.416 46.1923C122.11 46.4451 121.692 46.5714 121.172 46.5714H119.037V43.7854H121.157C121.702 43.7854 122.124 43.9021 122.426 44.1355C122.727 44.369 122.878 44.7141 122.878 45.1712ZM124.614 50.7432L122.382 47.612C122.674 47.5341 122.941 47.4224 123.18 47.2765C123.418 47.1306 123.627 46.9555 123.802 46.7465C123.977 46.5374 124.113 46.2992 124.21 46.027C124.308 45.7546 124.356 45.4483 124.356 45.0983C124.356 44.6947 124.283 44.33 124.142 44.0043C124.001 43.6785 123.797 43.4013 123.534 43.1777C123.272 42.954 122.946 42.779 122.567 42.6574C122.183 42.5359 121.76 42.4727 121.283 42.4727H117.598V50.7432H119.037V47.8599H120.865L122.902 50.7432H124.614ZM104.164 42.4727H102.724V47.2327C102.724 47.996 102.54 48.5698 102.165 48.9588C101.791 49.3428 101.285 49.5374 100.634 49.5374C99.9822 49.5374 99.462 49.338 99.0876 48.9345C98.7133 48.531 98.5285 47.9474 98.5285 47.1744V42.4727H97.0893V47.2327C97.0893 47.8307 97.172 48.3559 97.3373 48.813C97.5026 49.2651 97.7408 49.6444 98.0472 49.9506C98.3534 50.257 98.7229 50.4904 99.1556 50.6411C99.5885 50.7918 100.075 50.8697 100.61 50.8697C101.144 50.8697 101.645 50.7918 102.083 50.6411C102.52 50.4855 102.89 50.257 103.201 49.9458C103.507 49.6346 103.746 49.2457 103.916 48.7838C104.086 48.317 104.169 47.7773 104.169 47.1646V42.4727H104.164ZM81.6228 43.8195H84.2483V42.4727H77.5386V43.8195H80.1593V50.7432H81.6228V43.8195ZM63.1222 48.1906L58.7026 42.4727H57.3558V50.7432H58.7949V44.86L63.346 50.7432H64.5615V42.4727H63.1222V48.1906ZM44.1259 42.4727H38.0045V50.7432H44.1842V49.4304H39.4436V47.223H43.5911V45.9103H39.4436V43.7854H44.1211V42.4727H44.1259ZM21.0987 48.8324L18.6044 42.4727H16.9805L20.418 50.8015H21.6919L25.1294 42.4727H23.559L21.0793 48.8324H21.0987Z" fill="white"/>
<path d="M54.8557 11H39.7441V14.2382H54.8557V11Z" fill="white"/>
<path d="M162.757 35.9241H16.9805V37.9711H162.757V35.9241Z" fill="white"/>
</g>
</g>
<defs>
<clipPath id="clip0_134_972">
<rect width="145.882" height="40" fill="white" transform="translate(16.9805 11)"/>
</clipPath>
</defs>
</svg>
