<svg width="24" height="24" viewBox="0 0 24 24" fill="none" xmlns="http://www.w3.org/2000/svg">
<path d="M9.96473 2.20223C15.3749 1.07852 20.6746 4.55481 21.7987 9.96492C22.9225 15.3752 19.4453 20.6749 14.035 21.7989C14.0198 21.8021 14.0043 21.8036 13.9891 21.8067C13.9647 21.8123 13.9405 21.8192 13.9159 21.8243C13.826 21.843 13.7357 21.8571 13.6464 21.8692C8.37334 22.7524 3.29924 19.3166 2.20203 14.0362C1.10282 8.74478 4.4042 3.56115 9.61121 2.28426C9.68774 2.26334 9.76568 2.24401 9.84461 2.22762C9.86089 2.22424 9.87717 2.22101 9.89344 2.21785C9.91705 2.21277 9.94103 2.20715 9.96473 2.20223ZM8.24012 13.8018C8.7577 15.676 9.57801 17.245 10.5028 18.3253C11.2377 19.1835 11.961 19.6542 12.6034 19.8253L11.2235 13.1817L8.24012 13.8018ZM4.42566 14.5948C5.15802 16.7413 6.74604 18.4124 8.71668 19.3009C7.6703 17.9693 6.81277 16.2071 6.27723 14.21L4.42566 14.5948ZM13.1815 12.7755L14.5341 19.2813C14.971 18.8514 15.3646 18.1876 15.6512 17.2559C16.0693 15.8966 16.1956 14.1306 15.9237 12.2052L13.1815 12.7755ZM17.8866 11.7979C18.2088 13.9633 18.094 16.0299 17.5966 17.7237C19.255 16.0987 20.1769 13.7854 19.9804 11.3624L17.8866 11.7979ZM6.08289 6.6075C4.62762 8.20732 3.83675 10.3743 4.01941 12.6358L5.87098 12.2511C5.56701 10.2057 5.65204 8.24648 6.08289 6.6075ZM9.43738 4.58309C8.91606 4.99604 8.43973 5.71718 8.1073 6.79793C7.68948 8.1567 7.56209 9.92103 7.83289 11.8429L10.8163 11.2237L9.43738 4.58309ZM12.7743 10.8165L15.5175 10.2471C15.0004 8.37625 14.1813 6.80863 13.2567 5.72859C12.6221 4.9874 11.9961 4.53404 11.4237 4.31355L12.7743 10.8165ZM14.8514 4.51961C15.9835 5.87501 16.9132 7.72537 17.4804 9.83894L19.5731 9.40437C18.7875 7.10409 17.0202 5.34888 14.8514 4.51961Z" fill="#DDF0A7"/>
</svg>
