<svg width="24" height="24" viewBox="0 0 24 24" fill="none" xmlns="http://www.w3.org/2000/svg">
<path fill-rule="evenodd" clip-rule="evenodd" d="M13 3.05493C17.5 3.55237 21 7.36745 21 12C21 16.6326 17.5 20.4476 13 20.9451V3.05493ZM11 3.05484C10.8106 3.07575 10.623 3.10253 10.4375 3.13498C9.89347 3.23014 9.37531 2.86625 9.28016 2.32223C9.185 1.7782 9.54889 1.26005 10.0929 1.16489C10.713 1.05643 11.3503 1 12 1C18.0751 1 23 5.92487 23 12C23 18.0751 18.0751 23 12 23C11.3511 23 10.7145 22.9437 10.0951 22.8355C9.55105 22.7404 9.18707 22.2224 9.28211 21.6783C9.37716 21.1343 9.89524 20.7703 10.4393 20.8653C10.6242 20.8976 10.8112 20.9243 11 20.9452V3.05484ZM7.08054 3.23454C6.76327 2.78248 6.1396 2.6732 5.68754 2.99047C4.63832 3.72684 3.72379 4.64174 2.98785 5.69128C2.67077 6.14348 2.7803 6.76709 3.23249 7.08417C3.68469 7.40125 4.30831 7.29172 4.62539 6.83953C5.22805 5.98005 5.97725 5.23055 6.83647 4.62753C7.28853 4.31027 7.3978 3.6866 7.08054 3.23454ZM2.32211 9.28058C1.77808 9.18545 1.25994 9.54935 1.16481 10.0934C1.0564 10.7133 1 11.3505 1 12C1 12.6495 1.0564 13.2867 1.16481 13.9066C1.25994 14.4506 1.77808 14.8146 2.32211 14.7194C2.86614 14.6243 3.23005 14.1061 3.13492 13.5621C3.04631 13.0554 3 12.5335 3 12C3 11.4665 3.04631 10.9446 3.13492 10.4379C3.23005 9.89385 2.86614 9.37571 2.32211 9.28058ZM3.23611 16.9223C2.78415 17.2397 2.67508 17.8634 2.99249 18.3153C3.72791 19.3625 4.6412 20.2754 5.6887 21.0103C6.14081 21.3276 6.76446 21.2182 7.08167 20.7661C7.39887 20.314 7.28952 19.6903 6.83742 19.3731C5.97961 18.7713 5.23143 18.0234 4.62919 17.1659C4.31178 16.7139 3.68808 16.6049 3.23611 16.9223Z" fill="#DDF0A7"/>
</svg>
