<svg width="24" height="24" viewBox="0 0 24 24" fill="none" xmlns="http://www.w3.org/2000/svg">
<path fill-rule="evenodd" clip-rule="evenodd" d="M11 3.96004C7.11195 3.96004 3.96004 7.11195 3.96004 11C3.96004 14.8881 7.11195 18.04 11 18.04C12.8978 18.04 14.6202 17.2891 15.8863 16.0682C15.9121 16.0345 15.9404 16.002 15.9712 15.9712C16.002 15.9404 16.0345 15.9121 16.0682 15.8863C17.2891 14.6202 18.04 12.8978 18.04 11C18.04 7.11195 14.8881 3.96004 11 3.96004ZM17.9783 16.6207C19.2179 15.0836 19.96 13.1285 19.96 11C19.96 6.05157 15.9485 2.04004 11 2.04004C6.05157 2.04004 2.04004 6.05157 2.04004 11C2.04004 15.9485 6.05157 19.96 11 19.96C13.1285 19.96 15.0836 19.2179 16.6207 17.9783L20.3212 21.6789C20.6961 22.0538 21.304 22.0538 21.6789 21.6789C22.0538 21.304 22.0538 20.6961 21.6789 20.3212L17.9783 16.6207Z" fill="white"/>
</svg>
