<svg width="347" height="398" viewBox="0 0 347 398" fill="none" xmlns="http://www.w3.org/2000/svg">
<path d="M148.343 142.987C156.753 136.473 203.661 104.609 212.19 99.7523C219.414 95.7249 221.073 94.1861 222.613 90.1588C226.758 79.1423 233.155 43.132 235.643 16.5987C236.945 3.45047 228.653 -3.65595 218.349 1.91131C216.098 3.09583 209.701 6.29405 204.135 9.01845C198.567 11.6244 182.457 21.8113 168.243 31.5244C136.379 53.4381 137.327 42.5405 131.878 97.2659C130.694 109.94 121.336 163.953 148.343 142.987ZM153.2 68.9548C153.2 65.1644 157.227 61.8483 182.813 44.5542C195.487 35.9072 207.806 27.3779 210.057 25.4826C215.624 20.9814 215.861 21.1004 214.676 28.326C208.399 66.5862 204.135 76.1812 199.988 87.4343C173.692 100.819 144.079 123.087 143.013 122.495C142.539 121.784 153.2 78.7864 153.2 68.9548Z" fill="white" fill-opacity="0.03"/>
<path d="M137.563 268.431C146.447 268.431 204.014 216.903 209.463 212.995C220.717 204.94 234.694 141.212 226.046 137.185C222.493 135.526 223.204 135.408 214.675 137.54C211.004 138.488 195.723 145.358 180.679 152.939C146.447 170.114 150 164.31 145.973 174.497C135.431 201.03 128.679 253.267 125.954 257.649C123.23 261.559 130.692 268.431 137.563 268.431ZM147.75 229.341C152.369 214.771 157.226 194.397 160.661 180.42C203.897 160.875 211.241 155.307 211.241 157.794C211.241 160.755 206.62 167.035 201.171 204.703C190.985 210.98 169.663 223.534 156.278 233.604C142.182 244.145 143.011 244.503 147.75 229.341Z" fill="white" fill-opacity="0.03"/>
<path d="M101.438 188.948C91.6066 172.246 74.6681 189.896 72.299 191.674C45.8843 211.574 34.9865 224.247 21.0091 236.449C13.7836 242.845 17.811 241.067 6.91343 279.683C-5.16872 322.563 1.58308 331.684 35.9343 305.742C57.2556 289.633 58.4399 289.87 81.8935 273.049C91.9619 265.942 90.8958 258.716 96.3447 239.29C102.86 216.192 104.992 194.871 101.438 188.948ZM70.8774 258.007C69.5744 266.179 58.2032 265.469 36.6448 280.867C21.0091 292.121 28.4718 287.855 32.3807 257.294L33.8022 246.162C74.0758 214.06 83.3149 202.571 83.3149 206.836C83.3149 206.836 71.825 252.084 70.8774 258.007Z" fill="white" fill-opacity="0.03"/>
<path d="M325.668 49.0545C307.544 60.189 260.519 95.4882 256.135 99.2786C252.464 102.358 248.911 104.964 248.317 104.964C243.936 104.964 247.252 121.666 243.936 149.621C238.841 192.975 241.567 202.805 284.801 177.101C292.619 172.481 304.346 166.797 311.097 164.309C331.59 156.728 330.169 158.149 330.997 146.423C331.354 140.855 333.486 129.484 335.498 120.955C340.356 101.292 344.146 79.3779 345.331 65.7559C347.107 46.4481 337.394 41.8289 325.668 49.0545ZM323.773 83.8798C320.219 102.358 310.98 139.788 310.506 143.934C309.913 148.79 292.382 152.818 269.521 165.848C257.676 172.599 258.624 173.667 261.11 156.491C263.599 139.789 265.138 123.324 266.205 112.072C266.205 112.072 310.86 80.6816 316.072 76.7727C327.563 68.1257 326.852 67.6519 323.773 83.8798Z" fill="white" fill-opacity="0.03"/>
<path d="M281.129 195.462C254.596 212.282 238.013 223.416 236.591 223.416C232.327 223.416 218.824 284.775 220.245 297.45C220.719 301.358 221.784 312.256 221.784 312.966C223.088 322.799 250.212 309.767 288.828 280.51C299.608 272.336 301.029 271.625 305.531 271.864C312.755 272.219 314.77 268.311 317.376 249.476C326.022 185.393 317.376 172.482 281.129 195.462ZM296.054 260.847C295.935 260.965 288.474 264.875 279.352 269.732C246.185 287.144 236.591 296.383 237.656 291.882C238.25 289.513 243.225 254.451 245.001 240.473C245.474 237.039 246.304 235.262 248.2 234.314C249.621 233.603 300.556 203.753 300.556 203.753C300.673 203.873 298.304 260.847 296.054 260.847Z" fill="white" fill-opacity="0.03"/>
<path d="M192.29 250.778C187.551 253.74 163.15 271.271 149.054 281.932C128.207 297.685 125.245 302.188 118.375 328.839C116.125 337.604 112.926 349.095 111.268 354.307C97.0537 399.437 112.689 401.449 122.758 394.698C129.865 389.841 172.153 354.544 181.392 345.779C188.262 339.145 190.632 337.604 192.881 338.078C200.108 339.5 202.594 333.34 207.096 302.306C210.769 276.837 214.203 237.157 192.29 250.778ZM192.764 274.707C191.579 282.642 185.182 320.667 185.182 324.338C185.182 326.352 126.785 366.981 127.733 363.427C136.498 328.839 135.077 306.333 138.986 306.333C141 306.333 145.975 303.016 174.995 282.288C195.487 267.6 193.711 268.311 192.764 274.707Z" fill="white" fill-opacity="0.03"/>
<path d="M30.7211 197.002C35.2223 194.633 47.4229 183.38 63.7689 170.232C104.872 136.947 106.649 134.579 112.808 103.781C119.56 69.6662 122.521 28.4442 95.5142 50.3579C87.6963 56.7543 43.0401 90.7502 36.5253 95.2514C27.4044 101.648 17.4544 173.548 13.9008 189.184C12.5978 195.225 23.8509 200.438 30.7211 197.002ZM48.1334 110.296C91.6052 77.4841 97.5279 72.746 97.5279 74.7597C97.5279 76.1811 89.4731 112.31 88.7624 119.417C88.0517 127.235 63.532 144.172 34.5114 168.692C30.7209 171.772 34.9852 166.798 48.1334 110.296Z" fill="white" fill-opacity="0.03"/>
</svg>
