<svg width="224" height="257" viewBox="0 0 224 257" fill="none" xmlns="http://www.w3.org/2000/svg">
<path d="M88.4962 172.684C94.2113 172.684 131.245 139.536 134.751 137.022C141.99 131.84 150.982 90.843 145.419 88.2522C143.133 87.1854 143.59 87.1092 138.103 88.4808C135.742 89.0904 125.911 93.5101 116.234 98.387C94.2113 109.436 96.4974 105.702 93.9065 112.256C87.1245 129.325 82.781 162.929 81.0284 165.748C79.2757 168.264 84.0765 172.684 88.4962 172.684ZM95.0495 147.538C98.0214 138.164 101.146 125.058 103.356 116.066C131.17 103.493 135.894 99.9103 135.894 101.511C135.894 103.416 132.922 107.455 129.416 131.688C122.863 135.726 109.147 143.802 100.536 150.28C91.468 157.061 92.0015 157.292 95.0495 147.538Z" fill="white" fill-opacity="0.03"/>
<path d="M65.2556 121.552C58.9308 110.807 48.0341 122.162 46.5101 123.306C29.5172 136.107 22.5065 144.26 13.5147 152.11C8.86637 156.225 11.4573 155.081 4.44673 179.923C-3.32586 207.508 1.01766 213.376 23.1162 196.687C36.8324 186.324 37.5943 186.476 52.6823 175.656C59.1595 171.084 58.4736 166.435 61.9789 153.937C66.17 139.079 67.5417 125.362 65.2556 121.552ZM45.5955 165.979C44.7573 171.236 37.442 170.779 23.5733 180.685C13.5147 187.925 18.3155 185.18 20.8302 165.52L21.7446 158.358C47.6531 137.707 53.5967 130.316 53.5967 133.059C53.5967 133.059 46.2051 162.169 45.5955 165.979Z" fill="white" fill-opacity="0.03"/>
<path d="M209.506 31.5579C197.846 38.7209 167.595 61.4293 164.775 63.8677C162.413 65.849 160.127 67.5254 159.745 67.5254C156.927 67.5254 159.06 78.2699 156.927 96.2535C153.649 124.144 155.403 130.468 183.216 113.931C188.245 110.96 195.79 107.303 200.132 105.703C213.316 100.826 212.402 101.74 212.934 94.1961C213.164 90.6146 214.535 83.2992 215.83 77.8127C218.955 65.1632 221.393 51.0653 222.155 42.3021C223.298 29.8812 217.049 26.9096 209.506 31.5579ZM208.287 53.9615C206.001 65.849 200.057 89.9279 199.752 92.595C199.37 95.7192 188.093 98.3101 173.386 106.692C165.766 111.036 166.376 111.722 167.975 100.673C169.576 89.9288 170.566 79.3367 171.253 72.0975C171.253 72.0975 199.98 51.904 203.333 49.3894C210.725 43.8266 210.268 43.5218 208.287 53.9615Z" fill="white" fill-opacity="0.03"/>
<path d="M180.854 125.743C163.785 136.564 153.117 143.727 152.202 143.727C149.459 143.727 140.772 183.199 141.686 191.353C141.991 193.867 142.676 200.878 142.676 201.335C143.515 207.661 160.965 199.277 185.807 180.456C192.741 175.197 193.656 174.74 196.552 174.894C201.199 175.122 202.495 172.608 204.172 160.491C209.734 119.266 204.172 110.96 180.854 125.743ZM190.455 167.806C190.379 167.882 185.579 170.397 179.71 173.522C158.374 184.723 152.202 190.667 152.887 187.771C153.269 186.247 156.469 163.691 157.612 154.7C157.917 152.49 158.451 151.347 159.67 150.737C160.584 150.28 193.351 131.077 193.351 131.077C193.427 131.154 191.903 167.806 190.455 167.806Z" fill="white" fill-opacity="0.03"/>
<path d="M123.703 161.329C120.655 163.235 104.957 174.513 95.8891 181.371C82.4776 191.505 80.5725 194.402 76.1528 211.547C74.705 217.186 72.6475 224.578 71.5807 227.931C62.4365 256.963 72.4951 258.258 78.9723 253.915C83.5444 250.79 110.748 228.083 116.692 222.444C121.112 218.177 122.636 217.186 124.084 217.491C128.732 218.405 130.332 214.442 133.228 194.478C135.591 178.094 137.8 152.567 123.703 161.329ZM124.008 176.723C123.246 181.828 119.131 206.289 119.131 208.651C119.131 209.947 81.5631 236.084 82.1728 233.798C87.8117 211.547 86.8973 197.068 89.4119 197.068C90.7074 197.068 93.9078 194.935 112.577 181.6C125.76 172.151 124.618 172.608 124.008 176.723Z" fill="white" fill-opacity="0.03"/>
</svg>
