<svg width="278" height="254" viewBox="0 0 278 254" fill="none" xmlns="http://www.w3.org/2000/svg">
<g clip-path="url(#clip0_315_11497)">
<path d="M111.325 46.7141C104.388 40.61 99.2554 30.344 97.3132 22.1591C94.6774 10.5059 110.492 -5.30892 123.394 22.5754C133.244 43.9395 143.787 46.5753 152.25 29.7893C160.713 12.8644 176.805 13.2805 171.672 30.2053C165.429 51.292 128.25 61.4192 111.325 46.7141Z" fill="#DDF0A7" fill-opacity="0.1"/>
<path d="M263.372 54.8994C240.759 71.8242 213.429 59.8936 209.545 31.3156C207.048 13.1422 227.857 13.281 235.348 31.4543C244.782 54.3444 253.383 52.2635 258.1 25.9052C259.626 17.1653 268.921 12.4486 274.192 17.7202C281.267 24.7954 275.163 46.0208 263.372 54.8994Z" fill="#DDF0A7" fill-opacity="0.1"/>
<path d="M202.052 111.916C184.85 129.812 147.809 118.297 141.567 93.1877C138.099 79.4542 159.74 80.8415 170.422 94.9911C175.971 102.482 180.133 105.951 179.994 105.812C181.52 107.199 184.017 107.06 185.266 105.396C186.515 103.731 189.15 98.5981 190.954 93.8813C194.977 83.7548 205.937 77.512 210.931 82.5062C214.538 86.1131 208.989 104.702 202.052 111.916Z" fill="#DDF0A7" fill-opacity="0.1"/>
<path d="M207.741 155.477C201.221 142.575 210.377 132.864 222.862 139.662C225.914 141.326 229.66 145.627 233.128 151.315C245.475 171.43 248.25 171.987 255.88 155.755C259.903 147.154 261.845 145.351 267.533 145.351C278.907 145.351 273.498 168.102 260.041 176.565C240.481 189.05 220.781 181.141 207.741 155.477Z" fill="#DDF0A7" fill-opacity="0.1"/>
<path d="M175.001 223.037C183.603 222.205 185.684 223.176 194.146 232.054C205.105 243.569 214.678 236.355 216.481 215.13C217.036 208.193 222.308 207.083 226.886 212.771C244.365 234.968 204.967 265.486 180.134 248.978C167.51 240.515 164.181 224.008 175.001 223.037Z" fill="#DDF0A7" fill-opacity="0.1"/>
<path d="M17.683 4.26331C19.9027 6.76041 23.9258 12.4483 26.5616 17.165C37.7986 37.4193 41.1281 37.2806 53.6136 16.4714C64.7118 -2.11818 77.4748 0.517652 70.6771 19.8008C61.7985 45.0493 26.7004 54.4814 10.4691 36.0306C-12.1435 10.3659 5.75241 -8.91585 17.683 4.26331Z" fill="#DDF0A7" fill-opacity="0.1"/>
<path d="M61.1048 80.2859C63.8793 82.783 68.1799 87.6385 70.5383 91.1067C83.0238 109.558 87.4631 109.003 96.6191 88.1934C102.307 75.153 118.954 70.7137 115.486 90.413C108.966 126.482 48.6194 126.205 42.0992 86.1125C40.4344 75.9853 52.0874 72.2397 61.1048 80.2859Z" fill="#DDF0A7" fill-opacity="0.1"/>
<path d="M109.799 143.407C112.019 144.517 118.678 150.205 124.365 155.754C142.539 173.511 150.447 173.511 157.661 155.06C160.99 146.598 162.239 145.488 167.649 145.488C178.747 145.488 175.834 166.297 163.626 174.343C138.654 190.713 93.7065 174.066 93.7065 148.401C93.8453 142.852 103.14 139.939 109.799 143.407Z" fill="#DDF0A7" fill-opacity="0.1"/>
</g>
<defs>
<clipPath id="clip0_315_11497">
<rect width="278" height="254" fill="white"/>
</clipPath>
</defs>
</svg>
