<svg width="96" height="96" viewBox="0 0 96 96" fill="none" xmlns="http://www.w3.org/2000/svg">
<path d="M47.5 12C58.5664 12 68.594 14.2425 75.8613 17.876C83.1187 21.5047 87.6738 26.55 87.6738 32.1738C87.6738 32.9257 87.5891 33.6664 87.4307 34.3955C87.5892 35.125 87.6738 35.866 87.6738 36.6182C87.6738 37.37 87.5891 38.1107 87.4307 38.8398C87.5892 39.5693 87.6738 40.3104 87.6738 41.0625C87.6738 41.8143 87.589 42.5551 87.4307 43.2842C87.5893 44.0138 87.6738 44.7555 87.6738 45.5078C87.6738 46.2596 87.5891 47.0004 87.4307 47.7295C87.5891 48.4588 87.6738 49.2002 87.6738 49.9521C87.6738 50.704 87.5891 51.4447 87.4307 52.1738C87.5891 52.9031 87.6738 53.6445 87.6738 54.3965C87.6738 55.1483 87.5891 55.889 87.4307 56.6182C87.5891 57.3475 87.6738 58.0888 87.6738 58.8408C87.6738 59.5927 87.5891 60.3334 87.4307 61.0625C87.5892 61.7919 87.6738 62.5331 87.6738 63.2852C87.6736 68.9087 83.1185 73.9534 75.8613 77.582C68.594 81.2156 58.5665 83.459 47.5 83.459C36.4333 83.459 26.4051 81.2157 19.1377 77.582C11.8807 73.9534 7.32643 68.9086 7.32617 63.2852C7.32617 62.5332 7.40994 61.7918 7.56836 61.0625C7.40998 60.3335 7.32622 59.5925 7.32617 58.8408C7.32617 58.0886 7.40984 57.3467 7.56836 56.6172C7.41011 55.8885 7.32622 55.1479 7.32617 54.3965C7.32617 53.6446 7.40997 52.903 7.56836 52.1738C7.40998 51.4448 7.32622 50.7039 7.32617 49.9521C7.32617 49.1999 7.40984 48.458 7.56836 47.7285C7.41011 46.9998 7.32622 46.2592 7.32617 45.5078C7.32617 44.7556 7.40984 44.0137 7.56836 43.2842C7.41005 42.5552 7.32619 41.8142 7.32617 41.0625C7.32619 40.3105 7.40989 39.5692 7.56836 38.8398C7.41001 38.1108 7.32618 37.3699 7.32617 36.6182C7.32617 35.8661 7.40991 35.1249 7.56836 34.3955C7.41001 33.6665 7.32619 32.9256 7.32617 32.1738C7.32617 26.5501 11.8804 21.5047 19.1377 17.876C26.4051 14.2423 36.4333 12 47.5 12ZM8.60059 63.9082C8.92466 68.5797 12.8765 73.0535 19.6973 76.4639C26.757 79.9937 36.5854 82.209 47.5 82.209C58.4146 82.209 68.243 79.9936 75.3027 76.4639C82.1224 73.054 86.0743 68.5809 86.3994 63.9102C84.5678 67.4743 80.854 70.6413 75.8613 73.1377C68.594 76.7712 58.5664 79.0146 47.5 79.0146C36.4333 79.0146 26.4051 76.7714 19.1377 73.1377C14.1443 70.641 10.4317 67.473 8.60059 63.9082ZM85.9248 60.3066C83.9668 63.5276 80.4571 66.3955 75.8613 68.6934C68.594 72.3269 58.5664 74.5703 47.5 74.5703C36.4333 74.5703 26.4051 72.327 19.1377 68.6934C14.5418 66.3953 11.0319 63.5279 9.07422 60.3066C8.99014 60.5578 8.91544 60.8095 8.85254 61.0625C9.86804 65.1477 13.6591 69.0004 19.6973 72.0195C26.757 75.5494 36.5854 77.7646 47.5 77.7646C58.4145 77.7646 68.243 75.5493 75.3027 72.0195C81.3407 69.0005 85.1319 65.1477 86.1475 61.0625C86.0845 60.8093 86.0089 60.5579 85.9248 60.3066ZM84.6328 57.6709C82.5825 60.159 79.5774 62.391 75.8613 64.249C68.594 67.8825 58.5664 70.1259 47.5 70.126C36.4333 70.1259 26.4051 67.8827 19.1377 64.249C15.4215 62.3909 12.4163 60.1593 10.3662 57.6709C10.115 58.057 9.88883 58.4465 9.68945 58.8398C11.3361 62.0889 14.7673 65.1102 19.6973 67.5752C26.757 71.105 36.5854 73.3203 47.5 73.3203C58.4145 73.3203 68.243 71.1049 75.3027 67.5752C80.2325 65.1103 83.6638 62.0888 85.3105 58.8398C85.1111 58.4463 84.8842 58.0571 84.6328 57.6709ZM82.6836 55.2617C80.8369 56.9394 78.5327 58.469 75.8613 59.8047C68.594 63.4382 58.5664 65.6816 47.5 65.6816C36.4333 65.6816 26.4051 63.4384 19.1377 59.8047C16.4664 58.469 14.1629 56.9394 12.3164 55.2617C11.8814 55.7069 11.4817 56.1588 11.1201 56.6182C13.0093 59.0178 15.9119 61.2382 19.6973 63.1309C26.757 66.6607 36.5854 68.8759 47.5 68.876C58.4145 68.8759 68.243 66.6606 75.3027 63.1309C79.0882 61.2381 81.9907 59.017 83.8799 56.6172C83.5184 56.158 83.1184 55.7067 82.6836 55.2617ZM79.9902 52.9385C78.7394 53.8002 77.3584 54.6108 75.8613 55.3594C68.594 58.993 58.5666 61.2363 47.5 61.2363C36.4333 61.2363 26.4051 58.9931 19.1377 55.3594C17.6406 54.6108 16.2596 53.8003 15.0088 52.9385C14.3665 53.4119 13.7704 53.8989 13.2197 54.3955C14.9399 55.9465 17.1119 57.3938 19.6973 58.6865C26.757 62.2163 36.5854 64.4316 47.5 64.4316C58.4145 64.4316 68.243 62.2163 75.3027 58.6865C77.8879 57.3939 80.0602 55.9464 81.7803 54.3955C81.2294 53.8988 80.6328 53.412 79.9902 52.9385ZM75.8613 50.915C68.594 54.5486 58.5665 56.792 47.5 56.792C36.4333 56.792 26.4051 54.5487 19.1377 50.915C18.9688 50.8306 18.8026 50.7432 18.6367 50.6572C17.7364 51.1438 16.8917 51.6497 16.1045 52.1729C17.1939 52.8968 18.3928 53.589 19.6973 54.2412C26.757 57.771 36.5854 59.9863 47.5 59.9863C58.4147 59.9863 68.243 57.771 75.3027 54.2412C76.6071 53.589 77.8061 52.8968 78.8955 52.1729C78.108 51.6496 77.2629 51.1439 76.3623 50.6572C76.1965 50.7431 76.0301 50.8306 75.8613 50.915ZM85.9248 55.8623C85.7705 56.1161 85.607 56.3679 85.4336 56.6172C85.6071 56.8667 85.7704 57.119 85.9248 57.373C86.0089 57.1218 86.0845 56.8704 86.1475 56.6172C86.0846 56.3643 86.0088 56.1132 85.9248 55.8623ZM9.07422 55.8623C8.99025 56.1131 8.91538 56.3644 8.85254 56.6172C8.91535 56.8699 8.99028 57.1212 9.07422 57.3721C9.2285 57.1183 9.39208 56.8665 9.56543 56.6172C9.39209 56.3679 9.22849 56.1161 9.07422 55.8623ZM10.3662 53.2266C10.115 53.6127 9.88883 54.0021 9.68945 54.3955C9.88871 54.7887 10.1152 55.1776 10.3662 55.5635C10.6924 55.1676 11.0423 54.7779 11.416 54.3955C11.0421 54.013 10.6926 53.6227 10.3662 53.2266ZM84.6328 53.2266C84.3064 53.6227 83.9569 54.013 83.583 54.3955C83.9567 54.7779 84.3065 55.1676 84.6328 55.5635C84.884 55.1775 85.1112 54.7888 85.3105 54.3955C85.1111 54.002 84.8842 53.6128 84.6328 53.2266ZM71.3975 48.3975C64.7177 50.8801 56.4486 52.3476 47.5 52.3477C38.5515 52.3476 30.2824 50.88 23.6025 48.3975C22.3413 48.8799 21.1421 49.3986 20.0117 49.9512C27.0475 53.3906 36.7461 55.542 47.5 55.542C58.2535 55.542 67.9516 53.3904 74.9873 49.9512C73.8572 49.3987 72.6584 48.8798 71.3975 48.3975ZM82.6836 50.8164C82.1728 51.2805 81.6269 51.7326 81.0479 52.1729C81.6266 52.6129 82.172 53.0654 82.6826 53.5293C83.1178 53.084 83.5181 52.6324 83.8799 52.1729C83.5182 51.7135 83.1186 51.2616 82.6836 50.8164ZM12.3154 50.8174C11.8808 51.2622 11.4815 51.7138 11.1201 52.1729C11.4815 52.6319 11.8808 53.0835 12.3154 53.5283C12.8259 53.0646 13.3716 52.6128 13.9502 52.1729C13.3716 51.7329 12.8259 51.2812 12.3154 50.8174ZM9.07422 51.418C8.99025 51.6688 8.91538 51.9201 8.85254 52.1729C8.91534 52.4256 8.99028 52.6769 9.07422 52.9277C9.2285 52.6739 9.39208 52.4222 9.56543 52.1729C9.39209 51.9235 9.22849 51.6718 9.07422 51.418ZM85.9248 51.418C85.7705 51.6718 85.607 51.9235 85.4336 52.1729C85.6071 52.4223 85.7714 52.6738 85.9258 52.9277C86.0097 52.6769 86.0846 52.4256 86.1475 52.1729C86.0846 51.92 86.0088 51.6689 85.9248 51.418ZM15.0088 48.4941C14.3665 48.9675 13.7704 49.4546 13.2197 49.9512C13.7703 50.4476 14.3666 50.934 15.0088 51.4072C15.7405 50.9031 16.5167 50.4166 17.335 49.9502C16.5168 49.4838 15.7404 48.9982 15.0088 48.4941ZM79.9902 48.4941C79.2586 48.9981 78.4822 49.4839 77.6641 49.9502C78.4824 50.4166 79.2585 50.9031 79.9902 51.4072C80.6324 50.934 81.2287 50.4476 81.7793 49.9512C81.2285 49.4546 80.6326 48.9675 79.9902 48.4941ZM10.3662 48.7822C10.115 49.1683 9.88883 49.5578 9.68945 49.9512C9.88871 50.3443 10.1152 50.7333 10.3662 51.1191C10.6924 50.7232 11.0423 50.3335 11.416 49.9512C11.0421 49.5686 10.6926 49.1783 10.3662 48.7822ZM84.6328 48.7822C84.3064 49.1783 83.9569 49.5686 83.583 49.9512C83.9567 50.3335 84.3065 50.7232 84.6328 51.1191C84.884 50.7331 85.1112 50.3445 85.3105 49.9512C85.1111 49.5576 84.8842 49.1685 84.6328 48.7822ZM47.5 44.3613C39.301 44.3614 31.715 45.6105 25.4551 47.7285C31.715 49.8469 39.3008 51.0976 47.5 51.0977C55.6991 51.0976 63.285 49.8468 69.5449 47.7285C63.2851 45.6105 55.6989 44.3614 47.5 44.3613ZM75.8613 46.4707C74.9801 46.9113 74.0579 47.3303 73.0986 47.7285C74.0581 48.1267 74.98 48.5467 75.8613 48.9873C76.0303 49.0718 76.1973 49.1581 76.3633 49.2441C77.2639 48.7574 78.109 48.2519 78.8965 47.7285C78.1088 47.2051 77.2631 46.6997 76.3623 46.2129C76.1965 46.2988 76.0301 46.3863 75.8613 46.4707ZM18.6367 46.2129C17.7362 46.6996 16.8909 47.2052 16.1035 47.7285C16.8906 48.2516 17.7356 48.7566 18.6357 49.2432C18.8016 49.1572 18.9689 49.0717 19.1377 48.9873C20.0189 48.5467 20.9411 48.1267 21.9004 47.7285C20.9412 47.3304 20.0188 46.9113 19.1377 46.4707C18.9688 46.3863 18.8026 46.2988 18.6367 46.2129ZM82.6836 46.3721C82.1728 46.8361 81.6269 47.2883 81.0479 47.7285C81.6266 48.1686 82.172 48.6211 82.6826 49.085C83.1178 48.6396 83.5181 48.1881 83.8799 47.7285C83.5182 47.2692 83.1186 46.8172 82.6836 46.3721ZM12.3164 46.373C11.8816 46.818 11.4816 47.2693 11.1201 47.7285C11.4815 48.1876 11.8808 48.6391 12.3154 49.084C12.8258 48.6202 13.3716 48.1685 13.9502 47.7285C13.3718 47.2887 12.8267 46.8366 12.3164 46.373ZM85.9248 46.9736C85.7705 47.2275 85.607 47.4792 85.4336 47.7285C85.6071 47.9781 85.7704 48.2303 85.9248 48.4844C86.0089 48.2331 86.0845 47.9817 86.1475 47.7285C86.0846 47.4757 86.0088 47.2246 85.9248 46.9736ZM9.07422 46.9736C8.99025 47.2244 8.91538 47.4758 8.85254 47.7285C8.91535 47.9813 8.99028 48.2326 9.07422 48.4834C9.2285 48.2296 9.39208 47.9778 9.56543 47.7285C9.39208 47.4792 9.22849 47.2275 9.07422 46.9736ZM47.5 39.917C36.7466 39.917 27.0484 42.0676 20.0127 45.5068C21.1427 46.0592 22.3418 46.5772 23.6025 47.0596C30.2824 44.5773 38.5516 43.1114 47.5 43.1113C56.4484 43.1114 64.7177 44.5773 71.3975 47.0596C72.658 46.5774 73.8565 46.0591 74.9863 45.5068C67.9507 42.0679 58.253 39.917 47.5 39.917ZM15.0088 44.0498C14.3663 44.5234 13.7696 45.0101 13.2188 45.5068C13.7695 46.0035 14.3665 46.4894 15.0088 46.9629C15.7405 46.4588 16.5167 45.9723 17.335 45.5059C16.5168 45.0395 15.7404 44.5538 15.0088 44.0498ZM79.9902 44.0498C79.2586 44.5538 78.4822 45.0395 77.6641 45.5059C78.4824 45.9723 79.2585 46.4588 79.9902 46.9629C80.6326 46.4894 81.2295 46.0035 81.7803 45.5068C81.2294 45.0101 80.6328 44.5233 79.9902 44.0498ZM10.3662 44.3379C10.115 44.724 9.88883 45.1135 9.68945 45.5068C9.88871 45.9 10.1152 46.2889 10.3662 46.6748C10.6926 46.2787 11.0431 45.8894 11.417 45.5068C11.0429 45.1241 10.6927 44.7342 10.3662 44.3379ZM84.6328 44.3379C84.3063 44.7342 83.9561 45.1242 83.582 45.5068C83.9559 45.8893 84.3064 46.2787 84.6328 46.6748C84.884 46.2888 85.1112 45.9001 85.3105 45.5068C85.1111 45.1133 84.8842 44.7241 84.6328 44.3379ZM47.5 35.4727C36.5855 35.4727 26.757 37.687 19.6973 41.2168C18.3927 41.8691 17.193 42.5601 16.1035 43.2842C16.8908 43.8074 17.7363 44.3122 18.6367 44.7988C18.8024 44.713 18.9691 44.6273 19.1377 44.543C26.4051 40.9093 36.4333 38.667 47.5 38.667C58.5665 38.667 68.594 40.9094 75.8613 44.543C76.0299 44.6273 76.1967 44.713 76.3623 44.7988C77.2627 44.3122 78.1081 43.8074 78.8955 43.2842C77.8062 42.5603 76.607 41.8689 75.3027 41.2168C68.243 37.6869 58.4147 35.4727 47.5 35.4727ZM82.6836 41.9277C82.1728 42.3918 81.6269 42.844 81.0479 43.2842C81.6268 43.7244 82.1728 44.1766 82.6836 44.6406C83.1186 44.1954 83.5183 43.7436 83.8799 43.2842C83.5182 42.8248 83.1186 42.3729 82.6836 41.9277ZM12.3164 41.9287C11.8816 42.3737 11.4816 42.825 11.1201 43.2842C11.4815 43.7432 11.8808 44.1948 12.3154 44.6396C12.8259 44.1759 13.3716 43.7241 13.9502 43.2842C13.3718 42.8444 12.8267 42.3923 12.3164 41.9287ZM9.07422 42.5293C8.99025 42.7801 8.91538 43.0314 8.85254 43.2842C8.91535 43.5369 8.99028 43.7882 9.07422 44.0391C9.22859 43.7851 9.39294 43.5336 9.56641 43.2842C9.39294 43.0347 9.22859 42.7833 9.07422 42.5293ZM85.9248 42.5293C85.7704 42.7833 85.6061 43.0347 85.4326 43.2842C85.6062 43.5338 85.7713 43.7849 85.9258 44.0391C86.0097 43.7882 86.0846 43.5369 86.1475 43.2842C86.0846 43.0313 86.0088 42.7802 85.9248 42.5293ZM47.5 31.0283C36.5855 31.0284 26.757 33.2427 19.6973 36.7725C17.1121 38.0651 14.9398 39.5115 13.2197 41.0625C13.7703 41.5589 14.3666 42.0453 15.0088 42.5186C16.2595 41.6569 17.6407 40.8471 19.1377 40.0986C26.4051 36.4649 36.4333 34.2227 47.5 34.2227C58.5665 34.2227 68.594 36.4651 75.8613 40.0986C77.3583 40.8471 78.7395 41.6569 79.9902 42.5186C80.6324 42.0453 81.2287 41.5589 81.7793 41.0625C80.0593 39.5117 77.8876 38.0649 75.3027 36.7725C68.243 33.2426 58.4147 31.0284 47.5 31.0283ZM10.3662 39.8936C10.115 40.2796 9.88883 40.6691 9.68945 41.0625C9.8887 41.4557 10.1152 41.8446 10.3662 42.2305C10.6926 41.8344 11.0431 41.445 11.417 41.0625C11.0429 40.6798 10.6927 40.2898 10.3662 39.8936ZM84.6328 39.8936C84.3063 40.2898 83.9561 40.6798 83.582 41.0625C83.9559 41.445 84.3064 41.8344 84.6328 42.2305C84.884 41.8444 85.1112 41.4558 85.3105 41.0625C85.1111 40.669 84.8842 40.2798 84.6328 39.8936ZM47.5 26.584C36.5855 26.584 26.757 28.7984 19.6973 32.3281C15.9122 34.2207 13.0092 36.4402 11.1201 38.8398C11.4815 39.2989 11.8808 39.7505 12.3154 40.1953C14.1619 38.5176 16.4665 36.9899 19.1377 35.6543C26.4051 32.0206 36.4333 29.7784 47.5 29.7783C58.5665 29.7784 68.594 32.0207 75.8613 35.6543C78.5324 36.9898 80.836 38.5187 82.6826 40.1963C83.1178 39.751 83.5181 39.2994 83.8799 38.8398C81.9907 36.4402 79.0879 34.2207 75.3027 32.3281C68.243 28.7983 58.4147 26.584 47.5 26.584ZM85.9248 38.084C85.7703 38.3382 85.6063 38.5901 85.4326 38.8398C85.6063 39.0895 85.7703 39.3415 85.9248 39.5957C86.0089 39.3445 86.0845 39.093 86.1475 38.8398C86.0845 38.5867 86.0089 38.3352 85.9248 38.084ZM9.07422 38.085C8.99025 38.3358 8.91538 38.5871 8.85254 38.8398C8.91535 39.0926 8.99028 39.3439 9.07422 39.5947C9.22859 39.3407 9.39294 39.0893 9.56641 38.8398C9.39294 38.5904 9.22859 38.339 9.07422 38.085ZM47.5 22.1387C36.5855 22.1387 26.757 24.353 19.6973 27.8828C14.7673 30.3478 11.3351 33.3689 9.68848 36.6182C9.88779 37.0114 10.1151 37.4001 10.3662 37.7861C12.4162 35.298 15.422 33.0679 19.1377 31.21C26.4051 27.5763 36.4333 25.334 47.5 25.334C58.5665 25.334 68.594 27.5764 75.8613 31.21C79.577 33.0678 82.5825 35.2981 84.6328 37.7861C84.884 37.4001 85.1112 37.0115 85.3105 36.6182C83.6638 33.3691 80.2324 30.3477 75.3027 27.8828C68.243 24.353 58.4146 22.1387 47.5 22.1387ZM47.5 17.6943C36.5855 17.6944 26.757 19.9087 19.6973 23.4385C13.6593 26.4575 9.86811 30.3102 8.85254 34.3955C8.91536 34.6483 8.99027 34.8996 9.07422 35.1504C11.0319 31.9293 14.5422 29.0624 19.1377 26.7646C26.4051 23.131 36.4333 20.8887 47.5 20.8887C58.5664 20.8887 68.594 23.1312 75.8613 26.7646C80.4567 29.0623 83.9667 31.9295 85.9248 35.1504C86.0088 34.8995 86.0846 34.6484 86.1475 34.3955C85.1318 30.3102 81.3408 26.4575 75.3027 23.4385C68.243 19.9087 58.4146 17.6944 47.5 17.6943ZM47.5 13.25C36.5855 13.25 26.757 15.4644 19.6973 18.9941C12.8778 22.4039 8.92587 26.8771 8.60059 31.5479C10.4319 27.9835 14.1451 24.8167 19.1377 22.3203C26.4051 18.6866 36.4333 16.4444 47.5 16.4443C58.5664 16.4444 68.594 18.6868 75.8613 22.3203C80.8531 24.8162 84.5664 27.9824 86.3984 31.5459C86.0721 26.8758 82.1213 22.4034 75.3027 18.9941C68.243 15.4643 58.4146 13.25 47.5 13.25Z" fill="#DDF0A7"/>
</svg>
