<svg width="96" height="96" viewBox="0 0 96 96" fill="none" xmlns="http://www.w3.org/2000/svg">
<path fill-rule="evenodd" clip-rule="evenodd" d="M47.5 15L2.5 80.4546H92.5L47.5 15ZM85.4275 79.7386H9.5725L47.5 71.9807L85.4275 79.7386ZM8.0467 79.32L47.5 71.25L86.9533 79.32L47.5 65.87L8.0467 79.32ZM47.5 59.7705L8.3173 78.4714L47.5 65.1136L86.6827 78.4714L47.5 59.7705ZM8.6596 77.5147L47.5 58.9773L86.3404 77.5147L47.5 53.6809L8.6596 77.5147ZM47.5 47.5994L9.0625 76.4276L47.5 52.8409L85.9375 76.4276L47.5 47.5994ZM9.5155 75.193L47.5 46.7045L85.4845 75.193L47.5 41.5248L9.5155 75.193ZM47.5 35.4558L10.0095 73.7984L47.5 40.5682L84.9905 73.7984L47.5 35.4558ZM10.5369 72.235L47.5 34.4318L84.463 72.2349L47.5 29.3914L10.5369 72.235ZM47.5 22.3209L9.9456 71.8245L47.5 28.2955L85.0544 71.8245L47.5 22.3209ZM11.7669 68.2391L47.5 21.1364L83.2331 68.239L47.5 16.2637L11.7669 68.2391Z" fill="#DDF0A7"/>
</svg>
