<svg width="96" height="96" viewBox="0 0 96 96" fill="none" xmlns="http://www.w3.org/2000/svg">
<path fill-rule="evenodd" clip-rule="evenodd" d="M87.5 48C87.5 25.9086 69.5914 8 47.5 8C25.4086 8 7.5 25.9086 7.5 48C7.5 70.0914 25.4086 88 47.5 88C69.5914 88 87.5 70.0914 87.5 48ZM42.5 48C42.5 65.5541 43.9135 80.4672 45.8796 85.8526C45.5083 85.4676 45.1071 84.9369 44.6836 84.2206C43.575 82.3448 42.5332 79.5474 41.6416 75.9811C39.8632 68.8677 38.75 58.9743 38.75 48C38.75 37.0257 39.8632 27.1323 41.6416 20.0189C42.5332 16.4526 43.575 13.6552 44.6836 11.7794C45.1071 11.0631 45.5083 10.5324 45.8796 10.1474C43.9135 15.5328 42.5 30.4459 42.5 48ZM50.3164 84.2206C49.8929 84.9369 49.4917 85.4676 49.1204 85.8526C51.0865 80.4672 52.5 65.5541 52.5 48C52.5 30.4459 51.0865 15.5328 49.1204 10.1474C49.4917 10.5324 49.8929 11.0631 50.3164 11.7794C51.425 13.6552 52.4668 16.4526 53.3584 20.0189C55.1368 27.1323 56.25 37.0257 56.25 48C56.25 58.9743 55.1368 68.8677 53.3584 75.9811C52.4668 79.5474 51.425 82.3448 50.3164 84.2206ZM43.8483 85.2492C43.4318 84.9047 43.0142 84.4983 42.5966 84.0273C40.9396 82.1584 39.3903 79.3827 38.0638 75.8454C35.4143 68.78 33.75 58.9355 33.75 48C33.75 37.0645 35.4143 27.22 38.0638 20.1546C39.3903 16.6174 40.9396 13.8416 42.5966 11.9727C43.0142 11.5017 43.4318 11.0953 43.8483 10.7508C40.1315 16.5853 37.5 31.0634 37.5 48C37.5 64.9366 40.1315 79.4147 43.8483 85.2492ZM51.1517 85.2492C51.5682 84.9047 51.9858 84.4983 52.4034 84.0273C54.0604 82.1584 55.6097 79.3827 56.9362 75.8454C59.5857 68.78 61.25 58.9355 61.25 48C61.25 37.0645 59.5857 27.22 56.9362 20.1546C55.6097 16.6174 54.0604 13.8416 52.4034 11.9727C51.9858 11.5017 51.5682 11.0953 51.1517 10.7508C54.8685 16.5853 57.5 31.0634 57.5 48C57.5 64.9366 54.8685 79.4147 51.1517 85.2492ZM34.4759 75.7253C36.5062 79.7858 38.9035 82.8057 41.48 84.6483C36.193 78.4638 32.5 64.3819 32.5 48C32.5 31.6181 36.193 17.5362 41.48 11.3517C38.9035 13.1943 36.5062 16.2142 34.4759 20.2747C30.9604 27.3057 28.75 37.1063 28.75 48C28.75 58.8937 30.9604 68.6943 34.4759 75.7253ZM60.5241 75.7253C58.4938 79.7858 56.0965 82.8057 53.52 84.6483C58.807 78.4638 62.5 64.3819 62.5 48C62.5 31.6181 58.807 17.5362 53.52 11.3517C56.0965 13.1943 58.4938 16.2142 60.5241 20.2747C64.0396 27.3057 66.25 37.1063 66.25 48C66.25 58.8937 64.0396 68.6943 60.5241 75.7253ZM38.8398 84.0658C35.8794 82.1595 33.1745 79.2892 30.8823 75.6218C26.5009 68.6114 23.75 58.8489 23.75 48C23.75 37.1511 26.5009 27.3886 30.8823 20.3782C33.1745 16.7108 35.8794 13.8406 38.8398 11.9342C32.1307 18.39 27.5 32.1135 27.5 48C27.5 63.8865 32.1307 77.61 38.8398 84.0658ZM56.1602 84.0658C59.1206 82.1595 61.8255 79.2892 64.1177 75.6218C68.4991 68.6114 71.25 58.8489 71.25 48C71.25 37.1511 68.4991 27.3886 64.1177 20.3782C61.8255 16.7108 59.1206 13.8406 56.1602 11.9342C62.8693 18.39 67.5 32.1135 67.5 48C67.5 63.8865 62.8693 77.61 56.1602 84.0658ZM27.2868 75.5343C29.7894 78.8711 32.7253 81.5747 35.9576 83.4908C27.9602 76.8188 22.5 63.4296 22.5 48C22.5 32.5704 27.9602 19.1812 35.9576 12.5092C32.7253 14.4253 29.7894 17.1289 27.2868 20.4657C22.0352 27.4679 18.75 37.1986 18.75 48C18.75 58.8014 22.0352 68.5321 27.2868 75.5343ZM67.7132 75.5343C65.2106 78.8711 62.2747 81.5747 59.0424 83.4908C67.0398 76.8188 72.5 63.4296 72.5 48C72.5 32.5704 67.0398 19.1812 59.0424 12.5092C62.2747 14.4253 65.2106 17.1289 67.7132 20.4657C72.9648 27.4679 76.25 37.1986 76.25 48C76.25 58.8014 72.9648 68.5321 67.7132 75.5343ZM32.8269 82.8972C21.5846 76.6524 13.75 63.4494 13.75 48C13.75 32.5506 21.5846 19.3476 32.8269 13.1028C23.6799 19.9548 17.5 33.0151 17.5 48C17.5 62.9849 23.6799 76.0452 32.8269 82.8972ZM62.173 82.8972C73.4154 76.6524 81.25 63.4494 81.25 48C81.25 32.5506 73.4154 19.3476 62.1731 13.1028C71.3201 19.9548 77.5 33.0151 77.5 48C77.5 62.9849 71.3201 76.0452 62.173 82.8972ZM8.75 48C8.75 62.9353 17.1996 75.8972 29.5792 82.366C19.3502 75.384 12.5 62.6062 12.5 48C12.5 33.3938 19.3502 20.616 29.5792 13.634C17.1996 20.1028 8.75 33.0647 8.75 48ZM86.25 48C86.25 62.9353 77.8004 75.8972 65.4208 82.366C75.6498 75.384 82.5 62.6062 82.5 48C82.5 33.3938 75.6498 20.616 65.4208 13.634C77.8004 20.1028 86.25 33.0647 86.25 48ZM49.7952 76.1292C50.6918 68.9564 51.25 59.0107 51.25 48C51.25 36.9893 50.6918 27.0436 49.7952 19.8708C49.3458 16.2756 48.8171 13.425 48.2475 11.4977C48.2064 11.3587 48.1656 11.2261 48.125 11.0996V84.9004C48.1656 84.7739 48.2064 84.6413 48.2475 84.5023C48.8171 82.575 49.3458 79.7244 49.7952 76.1292ZM46.875 11.0996V84.9004C46.8344 84.7739 46.7936 84.6413 46.7525 84.5023C46.1829 82.575 45.6542 79.7244 45.2048 76.1292C44.3082 68.9564 43.75 59.0107 43.75 48C43.75 36.9893 44.3082 27.0436 45.2048 19.8708C45.6542 16.2756 46.1829 13.425 46.7525 11.4977C46.7936 11.3587 46.8344 11.2261 46.875 11.0996Z" fill="#DDF0A7"/>
</svg>
