<svg width="405" height="221" viewBox="0 0 405 221" fill="none" xmlns="http://www.w3.org/2000/svg">
<path d="M42.6415 28.9314C62.4185 42.9078 80.6738 39.1957 103.059 16.2658C121.097 -2.07808 134.354 -3.38879 151.089 11.461C178.038 35.2643 198.032 39.1947 216.288 24.1266C237.151 6.87459 240.845 4.68994 249.758 4.68994C259.97 4.68994 265.622 7.52931 272.794 16.0461C291.919 38.7575 312.347 39.6312 336.905 18.2299C361.464 -3.1713 392.76 3.16213 371.244 25.2184C343.86 53.171 300.611 60.5964 265.622 43.1261L249.973 35.2631L236.282 42.2517C211.072 55.3544 161.738 51.6416 138.484 35.2631L132.616 31.1152L122.184 38.5387C88.7151 62.3421 1.34888 55.7916 1.34888 29.586C1.34888 18.6671 27.4283 18.2308 42.6415 28.9314Z" fill="white" fill-opacity="0.03"/>
<path d="M100.885 101.436C116.751 89.2065 126.096 83.5268 157.391 102.744C186.731 120.651 196.294 120.214 226.72 99.4681C244.542 87.2391 251.496 87.4568 278.01 100.778C308.654 116.283 332.125 116.283 341.687 100.778C349.294 88.5486 381.675 87.6763 381.675 99.9048C381.675 124.8 309.521 139.213 270.621 121.961L251.714 113.663L241.281 120.214C213.463 137.248 172.387 137.903 140.44 121.524L129.138 115.63L111.97 123.49C70.4595 142.489 22.2123 142.054 4.1739 122.182C-4.95394 111.918 18.9523 107.985 38.5119 116.283C55.6809 123.708 79.1526 118.251 100.885 101.436Z" fill="white" fill-opacity="0.03"/>
<path d="M287.138 174.592C325.823 192.281 339.297 191.842 360.595 173.062C389.065 147.73 418.84 156.683 392.325 182.452C364.29 209.968 314.522 213.68 270.839 191.406L260.188 185.946L246.497 193.589C218.897 208.876 182.168 211.933 152.393 201.451L140.223 197.083L128.922 204.29C97.8436 224.163 49.1614 226.128 22.6473 208.657C-0.389683 193.371 21.3435 183.544 48.2924 196.865C62.2016 203.853 72.4162 204.947 84.3693 200.798C91.1066 198.396 95.8874 195.555 117.186 179.831C127.4 172.406 145.656 173.062 162.39 181.36C188.036 194.463 209.769 191.187 235.196 170.441C246.932 161.269 259.971 162.145 287.138 174.592Z" fill="white" fill-opacity="0.03"/>
</svg>
