<svg width="48" height="48" viewBox="0 0 48 48" fill="none" xmlns="http://www.w3.org/2000/svg">
<path fill-rule="evenodd" clip-rule="evenodd" d="M4 6C4 4.89543 4.89543 4 6 4H18C19.1046 4 20 4.89543 20 6C20 7.10457 19.1046 8 18 8H10.8284L19.4142 16.5858C20.1953 17.3668 20.1953 18.6332 19.4142 19.4142C18.6332 20.1953 17.3668 20.1953 16.5858 19.4142L8 10.8284V18C8 19.1046 7.10457 20 6 20C4.89543 20 4 19.1046 4 18V6ZM30 4H42C43.1046 4 44 4.89543 44 6V18C44 19.1046 43.1046 20 42 20C40.8954 20 40 19.1046 40 18V10.8284L31.4142 19.4142C30.6332 20.1953 29.3668 20.1953 28.5858 19.4142C27.8047 18.6332 27.8047 17.3668 28.5858 16.5858L37.1716 8H30C28.8954 8 28 7.10457 28 6C28 4.89543 28.8954 4 30 4ZM8 37.1716L16.5858 28.5858C17.3668 27.8047 18.6332 27.8047 19.4142 28.5858C20.1953 29.3668 20.1953 30.6332 19.4142 31.4142L10.8284 40H18C19.1046 40 20 40.8954 20 42C20 43.1046 19.1046 44 18 44H6C4.89543 44 4 43.1046 4 42V30C4 28.8954 4.89543 28 6 28C7.10457 28 8 28.8954 8 30V37.1716ZM40 30C40 28.8954 40.8954 28 42 28C43.1046 28 44 28.8954 44 30V42C44 43.1046 43.1046 44 42 44H30C28.8954 44 28 43.1046 28 42C28 40.8954 28.8954 40 30 40H37.1716L28.5858 31.4142C27.8047 30.6332 27.8047 29.3668 28.5858 28.5858C29.3668 27.8047 30.6332 27.8047 31.4142 28.5858L40 37.1716V30Z" fill="#DDF0A7"/>
</svg>
