<svg width="48" height="48" viewBox="0 0 48 48" fill="none" xmlns="http://www.w3.org/2000/svg">
<path fill-rule="evenodd" clip-rule="evenodd" d="M28.4339 4.04757C29.5121 4.28718 30.192 5.35553 29.9524 6.4338L21.9524 42.4338C21.7128 43.5121 20.6444 44.1919 19.5661 43.9523C18.4879 43.7127 17.808 42.6443 18.0476 41.5661L26.0476 5.56608C26.2872 4.48781 27.3556 3.80795 28.4339 4.04757ZM15.4142 12.5857C16.1953 13.3668 16.1953 14.6331 15.4142 15.4142L6.82843 23.9999L15.4142 32.5857C16.1953 33.3668 16.1953 34.6331 15.4142 35.4142C14.6332 36.1952 13.3668 36.1952 12.5858 35.4142L2.58579 25.4142C1.80474 24.6331 1.80474 23.3668 2.58579 22.5857L12.5858 12.5857C13.3668 11.8047 14.6332 11.8047 15.4142 12.5857ZM32.5858 12.5857C33.3668 11.8047 34.6332 11.8047 35.4142 12.5857L45.4142 22.5857C46.1953 23.3668 46.1953 24.6331 45.4142 25.4142L35.4142 35.4142C34.6332 36.1952 33.3668 36.1952 32.5858 35.4142C31.8047 34.6331 31.8047 33.3668 32.5858 32.5857L41.1716 23.9999L32.5858 15.4142C31.8047 14.6331 31.8047 13.3668 32.5858 12.5857Z" fill="#DDF0A7"/>
</svg>
