<svg width="194" height="30" viewBox="0 0 194 30" fill="none" xmlns="http://www.w3.org/2000/svg">
<path d="M21.7866 15.7817C31.8909 22.9224 41.2179 21.0258 52.6547 9.31057C61.8708 -0.0616238 68.6442 -0.731287 77.1941 6.85572C90.9628 19.0172 101.178 21.0253 110.505 13.3268C121.165 4.51245 123.052 3.39627 127.606 3.39627C132.824 3.39627 135.711 4.84695 139.375 9.19833C149.147 20.802 159.583 21.2484 172.131 10.3141C184.679 -0.620167 200.668 2.61569 189.675 13.8846C175.684 28.1661 153.588 31.9598 135.711 23.034L127.716 19.0166L120.721 22.5872C107.84 29.2816 82.6349 27.3847 70.7539 19.0166L67.756 16.8974L62.4261 20.6902C45.3263 32.8517 0.689453 29.505 0.689453 16.1161C0.689453 10.5374 14.0139 10.3145 21.7866 15.7817Z" fill="white" fill-opacity="0.03"/>
</svg>
