<svg width="48" height="48" viewBox="0 0 48 48" fill="none" xmlns="http://www.w3.org/2000/svg">
<path fill-rule="evenodd" clip-rule="evenodd" d="M32 24C32 28.4183 28.4183 32 24 32C19.5817 32 16 28.4183 16 24C16 19.5817 19.5817 16 24 16C28.4183 16 32 19.5817 32 24ZM28 24C28 26.2091 26.2091 28 24 28C21.7909 28 20 26.2091 20 24C20 21.7909 21.7909 20 24 20C26.2091 20 28 21.7909 28 24Z" fill="#DDF0A7"/>
<path fill-rule="evenodd" clip-rule="evenodd" d="M29.4837 5.42149C27.373 0.668089 20.6269 0.668101 18.5163 5.4215L18.1437 6.26047C17.7114 7.23422 16.5915 7.69807 15.5972 7.31526L14.7406 6.98544C9.88694 5.11674 5.11675 9.88695 6.98544 14.7406L7.31526 15.5972C7.69807 16.5915 7.23422 17.7114 6.26047 18.1437L5.4215 18.5163C0.66809 20.6269 0.6681 27.373 5.4215 29.4837L6.26047 29.8562C7.23422 30.2886 7.69807 31.4084 7.31526 32.4027L6.98544 33.2594C5.11674 38.113 9.88694 42.8832 14.7406 41.0145L15.5972 40.6847C16.5915 40.3019 17.7114 40.7657 18.1437 41.7395L18.5163 42.5785C20.6269 47.3319 27.373 47.3318 29.4837 42.5784L29.8562 41.7395C30.2886 40.7657 31.4084 40.3019 32.4027 40.6847L33.2594 41.0145C38.113 42.8832 42.8832 38.113 41.0145 33.2594L40.6847 32.4027C40.3019 31.4084 40.7657 30.2886 41.7395 29.8562L42.5785 29.4837C47.3319 27.373 47.3318 20.6269 42.5784 18.5163L41.7395 18.1437C40.7657 17.7114 40.3019 16.5915 40.6847 15.5972L41.0145 14.7406C42.8832 9.88694 38.113 5.11675 33.2594 6.98544L32.4027 7.31526C31.4084 7.69807 30.2886 7.23423 29.8562 6.26047L29.4837 5.42149ZM22.1721 7.0448C22.8756 5.46033 25.1243 5.46033 25.8279 7.04479L26.2004 7.88377C27.4975 10.805 30.857 12.1966 33.8399 11.0482L34.6966 10.7183C36.3144 10.0954 37.9045 11.6855 37.2816 13.3034L36.9518 14.16C35.8034 17.1429 37.1949 20.5024 40.1162 21.7995L40.9552 22.1721C42.5396 22.8756 42.5396 25.1243 40.9552 25.8279L40.1162 26.2004C37.1949 27.4975 35.8034 30.857 36.9518 33.8399L37.2816 34.6966C37.9045 36.3145 36.3144 37.9045 34.6966 37.2816L33.8399 36.9518C30.8571 35.8034 27.4975 37.1949 26.2004 40.1162L25.8279 40.9552C25.1243 42.5396 22.8756 42.5396 22.1721 40.9552L21.7995 40.1162C20.5024 37.1949 17.1429 35.8034 14.16 36.9518L13.3034 37.2816C11.6855 37.9045 10.0954 36.3144 10.7183 34.6966L11.0482 33.8399C12.1966 30.8571 10.805 27.4976 7.88377 26.2004L7.0448 25.8279C5.46033 25.1243 5.46033 22.8756 7.04479 22.1721L7.88377 21.7995C10.805 20.5024 12.1966 17.1429 11.0482 14.16L10.7183 13.3034C10.0954 11.6855 11.6855 10.0954 13.3034 10.7183L14.16 11.0482C17.1429 12.1966 20.5024 10.805 21.7995 7.88377L22.1721 7.0448Z" fill="#DDF0A7"/>
</svg>
