<svg width="48" height="48" viewBox="0 0 48 48" fill="none" xmlns="http://www.w3.org/2000/svg">
<path fill-rule="evenodd" clip-rule="evenodd" d="M12 4C12 2.89543 12.8954 2 14 2H16C17.1046 2 18 2.89543 18 4C18 5.10457 17.1046 6 16 6H14C12.8954 6 12 5.10457 12 4ZM23.9727 8H4C2.89543 8 2 8.89543 2 10C2 11.1046 2.89543 12 4 12H20.263L18.4457 14.7258L15 18.1716L11.4142 14.5858C10.6332 13.8047 9.36684 13.8047 8.58579 14.5858C7.80474 15.3668 7.80474 16.6332 8.58579 17.4142L12.1716 21L6.58579 26.5858C5.80474 27.3668 5.80474 28.6332 6.58579 29.4142C7.36684 30.1953 8.63316 30.1953 9.41421 29.4142L15 23.8284L18.5858 27.4142C19.3668 28.1953 20.6332 28.1953 21.4142 27.4142C22.1953 26.6332 22.1953 25.3668 21.4142 24.5858L17.8284 21L21.4142 17.4142C21.5073 17.3211 21.591 17.219 21.6641 17.1094L25.0704 12H28C29.1046 12 30 11.1046 30 10C30 8.89543 29.1046 8 28 8H24.031C24.0116 7.99972 23.9921 7.99972 23.9727 8ZM31.6954 18.6162C32.5196 18.2182 33.4804 18.2182 34.3046 18.6162C35.0215 18.9624 35.4102 19.5657 35.6033 19.8903C35.8056 20.2304 36.0131 20.6645 36.217 21.0909L45.8043 41.1371C46.2808 42.1336 45.8594 43.3277 44.8629 43.8043C43.8664 44.2808 42.6723 43.8594 42.1957 42.8629L38.9135 36H27.0865L23.8043 42.8629C23.3277 43.8594 22.1336 44.2808 21.1371 43.8043C20.1406 43.3277 19.7192 42.1336 20.1957 41.1371L29.7523 21.1551C29.7625 21.1338 29.7728 21.1124 29.783 21.091C29.9868 20.6646 30.1944 20.2304 30.3967 19.8903C30.5898 19.5657 30.9785 18.9624 31.6954 18.6162ZM28.9996 32H37.0004L33 23.6355L28.9996 32Z" fill="#DDF0A7"/>
</svg>
