<svg width="48" height="48" viewBox="0 0 48 48" fill="none" xmlns="http://www.w3.org/2000/svg">
<g opacity="0.1">
<path d="M44.124 6V13.213H39.9404C36.4782 13.213 34.7471 14.9441 34.7471 18.4064V23.0227H36.7667C39.5557 23.0227 41.8639 23.8883 43.6912 25.6194C45.6147 27.3505 46.5764 29.5144 46.5764 32.1111C46.5764 34.9001 45.6147 37.1602 43.6912 38.8913C41.8639 40.6224 39.5557 41.488 36.7667 41.488C33.9777 41.488 31.6695 40.5744 29.8422 38.7471C28.0149 36.9198 27.1013 34.6116 27.1013 31.8226V18.4064C27.1013 10.1355 31.2367 6 39.5076 6H44.124ZM19.0227 6V13.213H14.8392C11.3769 13.213 9.64579 14.9441 9.64579 18.4064V23.0227H11.6654C14.4545 23.0227 16.7626 23.8883 18.5899 25.6194C20.5134 27.3505 21.4751 29.5144 21.4751 32.1111C21.4751 34.9001 20.5134 37.1602 18.5899 38.8913C16.7626 40.6224 14.4545 41.488 11.6654 41.488C8.8764 41.488 6.56824 40.5744 4.74094 38.7471C2.91365 36.9198 2 34.6116 2 31.8226V18.4064C2 10.1355 6.13546 6 14.4064 6H19.0227Z" fill="white"/>
</g>
</svg>
