<svg width="48" height="48" viewBox="0 0 48 48" fill="none" xmlns="http://www.w3.org/2000/svg">
<path fill-rule="evenodd" clip-rule="evenodd" d="M20.0002 8C16.1342 8 13.0002 11.134 13.0002 15C13.0002 18.866 16.1342 22 20.0002 22C23.8662 22 27.0002 18.866 27.0002 15C27.0002 11.134 23.8662 8 20.0002 8ZM9.00017 15C9.00017 8.92487 13.925 4 20.0002 4C26.0753 4 31.0002 8.92487 31.0002 15C31.0002 21.0751 26.0753 26 20.0002 26C13.925 26 9.00017 21.0751 9.00017 15ZM14.6527 28.9999C14.7668 29 14.8826 29 15.0002 29H24.0002C25.1047 29 26.0002 29.8954 26.0002 31C26.0002 32.1046 25.1047 33 24.0002 33H15.0002C12.0635 33 11.0386 33.0217 10.2585 33.2584C8.34085 33.8401 6.84023 35.3407 6.25853 37.2583C6.02187 38.0384 6.00017 39.0634 6.00017 42C6.00017 43.1046 5.10474 44 4.00017 44C2.8956 44 2.00017 43.1046 2.00017 42C2.00017 41.8825 2.00012 41.7667 2.00008 41.6525C1.99917 39.198 1.99855 37.522 2.43077 36.0971C3.40027 32.9011 5.9013 30.4001 9.09731 29.4306C10.5221 28.9984 12.1982 28.999 14.6527 28.9999ZM45.4144 30.5858C46.1954 31.3668 46.1954 32.6332 45.4144 33.4142L37.4144 41.4142C36.6333 42.1953 35.367 42.1953 34.586 41.4142L30.586 37.4142C29.8049 36.6332 29.8049 35.3668 30.586 34.5858C31.367 33.8047 32.6333 33.8047 33.4144 34.5858L36.0002 37.1716L42.586 30.5858C43.367 29.8047 44.6333 29.8047 45.4144 30.5858Z" fill="#DDF0A7"/>
</svg>
